<mxfile host="app.diagrams.net" modified="2024-01-24T16:17:36.223Z" agent="Mozilla/5.0 (Macintosh; Intel Mac OS X 10_15_7) AppleWebKit/537.36 (KHTML, like Gecko) Chrome/120.0.0.0 Safari/537.36" etag="8pa8NLO__4FHj5o58pDZ" version="23.0.1" type="device">
  <diagram name="Page-1" id="33S_Ej40JaSlPPpbkt6Q">
    <mxGraphModel dx="1242" dy="693" grid="1" gridSize="10" guides="1" tooltips="1" connect="1" arrows="1" fold="1" page="1" pageScale="1" pageWidth="827" pageHeight="1169" math="0" shadow="0">
      <root>
        <mxCell id="0" />
        <mxCell id="1" parent="0" />
        <mxCell id="9QH0-0F60_eeHKpgjXC2-1" value="Actor" style="shape=umlActor;verticalLabelPosition=bottom;verticalAlign=top;html=1;outlineConnect=0;" vertex="1" parent="1">
          <mxGeometry x="30" y="140" width="30" height="60" as="geometry" />
        </mxCell>
        <mxCell id="9QH0-0F60_eeHKpgjXC2-6" style="edgeStyle=orthogonalEdgeStyle;rounded=0;orthogonalLoop=1;jettySize=auto;html=1;exitX=1;exitY=0;exitDx=0;exitDy=0;" edge="1" parent="1" source="9QH0-0F60_eeHKpgjXC2-2" target="9QH0-0F60_eeHKpgjXC2-5">
          <mxGeometry relative="1" as="geometry" />
        </mxCell>
        <mxCell id="9QH0-0F60_eeHKpgjXC2-2" value="" style="rounded=0;whiteSpace=wrap;html=1;" vertex="1" parent="1">
          <mxGeometry x="190" y="140" width="120" height="60" as="geometry" />
        </mxCell>
        <mxCell id="9QH0-0F60_eeHKpgjXC2-3" value="MoviesDigger" style="text;html=1;strokeColor=none;fillColor=none;align=center;verticalAlign=middle;whiteSpace=wrap;rounded=0;" vertex="1" parent="1">
          <mxGeometry x="220" y="155" width="60" height="30" as="geometry" />
        </mxCell>
        <mxCell id="9QH0-0F60_eeHKpgjXC2-4" value="" style="endArrow=classic;html=1;rounded=0;" edge="1" parent="1" source="9QH0-0F60_eeHKpgjXC2-1">
          <mxGeometry width="50" height="50" relative="1" as="geometry">
            <mxPoint x="140" y="220" as="sourcePoint" />
            <mxPoint x="190" y="170" as="targetPoint" />
          </mxGeometry>
        </mxCell>
        <mxCell id="9QH0-0F60_eeHKpgjXC2-5" value="Queue" style="ellipse;shape=cloud;whiteSpace=wrap;html=1;" vertex="1" parent="1">
          <mxGeometry x="360" y="30" width="120" height="80" as="geometry" />
        </mxCell>
        <mxCell id="9QH0-0F60_eeHKpgjXC2-7" value="Cron poll dispatcher" style="rounded=0;whiteSpace=wrap;html=1;" vertex="1" parent="1">
          <mxGeometry x="414" y="210" width="120" height="60" as="geometry" />
        </mxCell>
        <mxCell id="9QH0-0F60_eeHKpgjXC2-8" value="" style="endArrow=classic;html=1;rounded=0;exitX=0.675;exitY=0.913;exitDx=0;exitDy=0;exitPerimeter=0;" edge="1" parent="1" source="9QH0-0F60_eeHKpgjXC2-5">
          <mxGeometry width="50" height="50" relative="1" as="geometry">
            <mxPoint x="430" y="260" as="sourcePoint" />
            <mxPoint x="480" y="210" as="targetPoint" />
          </mxGeometry>
        </mxCell>
        <mxCell id="9QH0-0F60_eeHKpgjXC2-9" value="local db" style="shape=cylinder3;whiteSpace=wrap;html=1;boundedLbl=1;backgroundOutline=1;size=15;" vertex="1" parent="1">
          <mxGeometry x="600" y="300" width="60" height="80" as="geometry" />
        </mxCell>
        <mxCell id="9QH0-0F60_eeHKpgjXC2-10" value="" style="ellipse;whiteSpace=wrap;html=1;" vertex="1" parent="1">
          <mxGeometry x="580" y="90" width="120" height="80" as="geometry" />
        </mxCell>
        <mxCell id="9QH0-0F60_eeHKpgjXC2-11" value="OMDB" style="text;html=1;strokeColor=none;fillColor=none;align=center;verticalAlign=middle;whiteSpace=wrap;rounded=0;" vertex="1" parent="1">
          <mxGeometry x="610" y="120" width="60" height="30" as="geometry" />
        </mxCell>
        <mxCell id="9QH0-0F60_eeHKpgjXC2-12" value="" style="endArrow=classic;html=1;rounded=0;entryX=0.308;entryY=1;entryDx=0;entryDy=0;entryPerimeter=0;" edge="1" parent="1" target="9QH0-0F60_eeHKpgjXC2-10">
          <mxGeometry width="50" height="50" relative="1" as="geometry">
            <mxPoint x="540" y="250" as="sourcePoint" />
            <mxPoint x="590" y="200" as="targetPoint" />
          </mxGeometry>
        </mxCell>
        <mxCell id="9QH0-0F60_eeHKpgjXC2-13" value="" style="endArrow=classic;html=1;rounded=0;exitX=0.725;exitY=1.025;exitDx=0;exitDy=0;exitPerimeter=0;" edge="1" parent="1" source="9QH0-0F60_eeHKpgjXC2-10">
          <mxGeometry width="50" height="50" relative="1" as="geometry">
            <mxPoint x="490" y="320" as="sourcePoint" />
            <mxPoint x="540" y="270" as="targetPoint" />
          </mxGeometry>
        </mxCell>
        <mxCell id="9QH0-0F60_eeHKpgjXC2-14" value="" style="endArrow=classic;html=1;rounded=0;exitX=0.942;exitY=1.067;exitDx=0;exitDy=0;exitPerimeter=0;" edge="1" parent="1" source="9QH0-0F60_eeHKpgjXC2-7">
          <mxGeometry width="50" height="50" relative="1" as="geometry">
            <mxPoint x="550" y="390" as="sourcePoint" />
            <mxPoint x="600" y="340" as="targetPoint" />
          </mxGeometry>
        </mxCell>
        <mxCell id="9QH0-0F60_eeHKpgjXC2-15" value="" style="endArrow=classic;html=1;rounded=0;" edge="1" parent="1">
          <mxGeometry width="50" height="50" relative="1" as="geometry">
            <mxPoint x="590" y="360" as="sourcePoint" />
            <mxPoint x="470" y="270" as="targetPoint" />
          </mxGeometry>
        </mxCell>
        <mxCell id="9QH0-0F60_eeHKpgjXC2-16" value="" style="endArrow=classic;html=1;rounded=0;" edge="1" parent="1">
          <mxGeometry width="50" height="50" relative="1" as="geometry">
            <mxPoint x="410" y="260" as="sourcePoint" />
            <mxPoint x="50" y="220" as="targetPoint" />
          </mxGeometry>
        </mxCell>
        <mxCell id="9QH0-0F60_eeHKpgjXC2-17" value="request(1)" style="text;html=1;align=center;verticalAlign=middle;resizable=0;points=[];autosize=1;strokeColor=none;fillColor=none;" vertex="1" parent="1">
          <mxGeometry x="70" y="138" width="80" height="30" as="geometry" />
        </mxCell>
        <mxCell id="9QH0-0F60_eeHKpgjXC2-18" value="Put(2)" style="text;html=1;align=center;verticalAlign=middle;resizable=0;points=[];autosize=1;strokeColor=none;fillColor=none;" vertex="1" parent="1">
          <mxGeometry x="330" y="98" width="60" height="30" as="geometry" />
        </mxCell>
        <mxCell id="9QH0-0F60_eeHKpgjXC2-19" value="poll(3)" style="text;html=1;align=center;verticalAlign=middle;resizable=0;points=[];autosize=1;strokeColor=none;fillColor=none;" vertex="1" parent="1">
          <mxGeometry x="460" y="138" width="60" height="30" as="geometry" />
        </mxCell>
        <mxCell id="9QH0-0F60_eeHKpgjXC2-20" value="call OMDB(4)" style="text;html=1;align=center;verticalAlign=middle;resizable=0;points=[];autosize=1;strokeColor=none;fillColor=none;" vertex="1" parent="1">
          <mxGeometry x="490" y="170" width="100" height="30" as="geometry" />
        </mxCell>
        <mxCell id="9QH0-0F60_eeHKpgjXC2-21" value="get data(5)" style="text;html=1;align=center;verticalAlign=middle;resizable=0;points=[];autosize=1;strokeColor=none;fillColor=none;" vertex="1" parent="1">
          <mxGeometry x="600" y="218" width="80" height="30" as="geometry" />
        </mxCell>
        <mxCell id="9QH0-0F60_eeHKpgjXC2-22" value="update db(6)" style="text;html=1;align=center;verticalAlign=middle;resizable=0;points=[];autosize=1;strokeColor=none;fillColor=none;" vertex="1" parent="1">
          <mxGeometry x="534" y="270" width="90" height="30" as="geometry" />
        </mxCell>
        <mxCell id="9QH0-0F60_eeHKpgjXC2-23" value="Event success(7)" style="text;html=1;align=center;verticalAlign=middle;resizable=0;points=[];autosize=1;strokeColor=none;fillColor=none;" vertex="1" parent="1">
          <mxGeometry x="410" y="300" width="120" height="30" as="geometry" />
        </mxCell>
        <mxCell id="9QH0-0F60_eeHKpgjXC2-24" value="requested data(8)" style="text;html=1;align=center;verticalAlign=middle;resizable=0;points=[];autosize=1;strokeColor=none;fillColor=none;" vertex="1" parent="1">
          <mxGeometry x="160" y="240" width="120" height="30" as="geometry" />
        </mxCell>
      </root>
    </mxGraphModel>
  </diagram>
</mxfile>
